<svg width="1205" height="300" viewBox="0 0 1205 300" fill="none" xmlns="http://www.w3.org/2000/svg">
<mask id="path-1-outside-1_368_483" maskUnits="userSpaceOnUse" x="0" y="0" width="1206" height="300" fill="black">
<rect fill="white" width="1206" height="300"/>
<path d="M3 213.2L37.3387 6.79999H78.8645L72.8752 41.6H75.271C80.0624 29.8667 86.0517 20.4 93.2389 13.2C100.426 5.73333 109.61 2 120.79 2C131.704 2 139.955 5.59999 145.546 12.8C151.136 19.7333 153.265 29.6 151.934 42.4H153.931C158.988 30.4 165.377 20.6667 173.096 13.2C180.816 5.73333 190.931 2 203.442 2C226.867 2 238.579 14.9333 238.579 40.8C238.579 45.0667 238.313 50 237.781 55.6C237.248 61.2 236.583 66.4 235.784 71.2L212.226 213.2H170.701L193.46 75.6C194.791 68.9333 195.456 62.8 195.456 57.2C195.456 45.4667 191.064 39.6 182.28 39.6C178.553 39.6 174.96 40.6667 171.499 42.8C168.039 44.6667 164.578 48.2667 161.118 53.6C158.19 58.4 155.794 63.3333 153.931 68.4C152.067 73.4667 150.736 78.2667 149.938 82.8L128.376 213.2H86.8503L109.61 75.6C110.941 68.9333 111.606 62.8 111.606 57.2C111.606 45.4667 107.214 39.6 98.4296 39.6C94.7029 39.6 91.1094 40.6667 87.6489 42.8C84.1884 44.6667 80.7279 48.2667 77.2674 53.6C74.3393 58.4 71.9436 63.3333 70.0802 68.4C68.2169 73.4667 66.8859 78.2667 66.0874 82.8L44.5259 213.2H3Z"/>
<path d="M329.86 298C311.493 298 295.788 295.867 282.744 291.6C269.701 287.333 258.521 279.6 249.204 268.4L279.949 236.8C286.072 244.267 293.259 249.6 301.511 252.8C309.763 256.267 318.946 258 329.062 258C337.047 258 344.234 257.067 350.623 255.2C357.278 253.333 363.001 250 367.792 245.2C372.85 240.667 376.976 234.4 380.17 226.4C383.631 218.4 386.293 208.4 388.156 196.4L394.545 157.6H392.548C388.822 165.867 384.696 173.333 380.17 180C375.911 186.667 370.987 192.4 365.397 197.2C360.073 201.733 354.084 205.333 347.429 208C340.774 210.4 333.321 211.6 325.069 211.6C315.486 211.6 307.101 210.133 299.914 207.2C292.993 204 287.27 199.733 282.744 194.4C278.219 189.067 274.759 182.8 272.363 175.6C270.233 168.4 269.168 160.533 269.168 152C269.168 146.667 269.435 141.2 269.967 135.6C270.499 130 271.431 122.933 272.762 114.4L290.73 6.79999H341.04L322.274 118.8C321.741 122.533 321.209 126.4 320.677 130.4C320.144 134.4 319.878 138.533 319.878 142.8C319.878 150.267 321.874 156.933 325.867 162.8C329.86 168.667 336.781 171.6 346.63 171.6C354.35 171.6 361.005 169.867 366.595 166.4C372.185 162.933 377.508 158.133 382.566 152C385.494 148.267 389.088 142.667 393.347 135.2C397.872 127.467 400.933 118.8 402.53 109.2L419.7 6.79999H470.01L437.268 203.2C431.945 236 419.966 260 401.333 275.2C382.965 290.4 359.141 298 329.86 298Z"/>
<path d="M531.344 6.79999H581.654L568.079 88.8H646.339L659.915 6.79999H710.225L675.886 213.2H625.576L639.551 128H561.291L547.316 213.2H497.005L531.344 6.79999Z"/>
<path d="M835.046 218C805.765 218 783.804 210.4 769.163 195.2C754.789 179.733 747.602 157.867 747.602 129.6C747.602 110.667 750.397 93.3333 755.987 77.6C761.843 61.8667 769.962 48.4 780.343 37.2C790.725 26 803.236 17.3333 817.876 11.2C832.517 5.06667 848.755 2 866.589 2C876.971 2 886.554 3.19999 895.338 5.59998C904.389 7.99998 912.241 11.6 918.896 16.4C925.817 20.9333 931.141 26.8 934.867 34C938.86 40.9333 940.857 49.0667 940.857 58.4C940.857 66.4 939.126 74.5333 935.666 82.8C932.206 90.8 925.418 98.1333 915.302 104.8C905.187 111.467 890.68 117.2 871.78 122C853.147 126.533 828.657 129.333 798.311 130.4C798.045 132 797.912 133.467 797.912 134.8C797.912 135.867 797.912 136.8 797.912 137.6C797.912 149.867 800.973 159.733 807.096 167.2C813.484 174.667 824.797 178.4 841.035 178.4C847.424 178.4 853.147 177.867 858.204 176.8C863.262 175.467 868.053 173.333 872.579 170.4C877.37 167.2 882.028 163.2 886.554 158.4C891.345 153.6 896.403 147.6 901.727 140.4L933.67 160.8C928.08 169.067 922.09 176.8 915.702 184C909.579 190.933 902.525 196.933 894.539 202C886.82 207.067 878.036 210.933 868.186 213.6C858.604 216.533 847.557 218 835.046 218ZM861.798 38.8C846.625 38.8 833.981 43.2 823.866 52C814.017 60.5333 807.096 74.6667 803.103 94.4L801.905 100.4C822.402 99.3333 838.506 97.4667 850.219 94.8C862.197 92.1333 871.248 89.0667 877.37 85.6C883.493 82.1333 887.352 78.4 888.949 74.4C890.813 70.1333 891.744 66.1333 891.744 62.4C891.744 55.2 889.349 49.4667 884.557 45.2C880.032 40.9333 872.446 38.8 861.798 38.8Z"/>
<path d="M1137.95 289.2C1133.69 289.2 1129.3 288.8 1124.77 288C1120.51 287.2 1115.72 285.867 1110.4 284C1105.34 282.4 1099.48 280 1092.83 276.8C1086.17 273.867 1078.45 270.133 1069.67 265.6L1066.08 267.6L1062.48 287.6H1022.16L1024.55 272.4C1028.81 245.2 1042.52 231.6 1065.68 231.6C1069.4 231.6 1073.26 232 1077.26 232.8C1081.25 233.6 1087.11 235.067 1094.83 237.2L1141.14 250.4L1145.14 248.4L1160.31 206.8L1159.11 206C1152.19 211.867 1143.94 214.8 1134.35 214.8C1123.71 214.8 1115.19 211.467 1108.8 204.8C1102.41 198.133 1099.22 189.2 1099.22 178C1099.22 171.6 1099.75 165.867 1100.81 160.8H1098.82C1094.29 170.4 1089.63 178.667 1084.84 185.6C1080.32 192.533 1075.39 198.133 1070.07 202.4C1065.01 206.667 1059.42 209.867 1053.3 212C1047.44 213.867 1040.92 214.8 1033.73 214.8C1016.43 214.8 1003.12 209.733 993.806 199.6C984.755 189.2 980.23 174.4 980.23 155.2C980.23 150.4 980.496 145.333 981.029 140C981.561 134.4 982.493 126.933 983.824 117.6L1002.59 6.79999H1052.9L1033.73 121.6C1031.87 130.667 1030.94 138.8 1030.94 146C1030.94 165.2 1039.06 174.8 1055.3 174.8C1061.68 174.8 1067.27 173.333 1072.07 170.4C1077.12 167.467 1082.45 162.4 1088.04 155.2C1093.36 148.267 1097.75 141.067 1101.21 133.6C1104.94 126.133 1107.34 119.2 1108.4 112.8L1125.97 6.79999H1176.28L1149.53 168.8L1155.52 170.8L1179.47 146.4L1202.23 168.8L1193.85 178L1180.27 246C1177.08 261.467 1172.15 272.533 1165.5 279.2C1159.11 285.867 1149.93 289.2 1137.95 289.2Z"/>
</mask>
<path d="M3 213.2L37.3387 6.79999H78.8645L72.8752 41.6H75.271C80.0624 29.8667 86.0517 20.4 93.2389 13.2C100.426 5.73333 109.61 2 120.79 2C131.704 2 139.955 5.59999 145.546 12.8C151.136 19.7333 153.265 29.6 151.934 42.4H153.931C158.988 30.4 165.377 20.6667 173.096 13.2C180.816 5.73333 190.931 2 203.442 2C226.867 2 238.579 14.9333 238.579 40.8C238.579 45.0667 238.313 50 237.781 55.6C237.248 61.2 236.583 66.4 235.784 71.2L212.226 213.2H170.701L193.46 75.6C194.791 68.9333 195.456 62.8 195.456 57.2C195.456 45.4667 191.064 39.6 182.28 39.6C178.553 39.6 174.96 40.6667 171.499 42.8C168.039 44.6667 164.578 48.2667 161.118 53.6C158.19 58.4 155.794 63.3333 153.931 68.4C152.067 73.4667 150.736 78.2667 149.938 82.8L128.376 213.2H86.8503L109.61 75.6C110.941 68.9333 111.606 62.8 111.606 57.2C111.606 45.4667 107.214 39.6 98.4296 39.6C94.7029 39.6 91.1094 40.6667 87.6489 42.8C84.1884 44.6667 80.7279 48.2667 77.2674 53.6C74.3393 58.4 71.9436 63.3333 70.0802 68.4C68.2169 73.4667 66.8859 78.2667 66.0874 82.8L44.5259 213.2H3Z" fill="#F3EFEC"/>
<path d="M329.86 298C311.493 298 295.788 295.867 282.744 291.6C269.701 287.333 258.521 279.6 249.204 268.4L279.949 236.8C286.072 244.267 293.259 249.6 301.511 252.8C309.763 256.267 318.946 258 329.062 258C337.047 258 344.234 257.067 350.623 255.2C357.278 253.333 363.001 250 367.792 245.2C372.85 240.667 376.976 234.4 380.17 226.4C383.631 218.4 386.293 208.4 388.156 196.4L394.545 157.6H392.548C388.822 165.867 384.696 173.333 380.17 180C375.911 186.667 370.987 192.4 365.397 197.2C360.073 201.733 354.084 205.333 347.429 208C340.774 210.4 333.321 211.6 325.069 211.6C315.486 211.6 307.101 210.133 299.914 207.2C292.993 204 287.27 199.733 282.744 194.4C278.219 189.067 274.759 182.8 272.363 175.6C270.233 168.4 269.168 160.533 269.168 152C269.168 146.667 269.435 141.2 269.967 135.6C270.499 130 271.431 122.933 272.762 114.4L290.73 6.79999H341.04L322.274 118.8C321.741 122.533 321.209 126.4 320.677 130.4C320.144 134.4 319.878 138.533 319.878 142.8C319.878 150.267 321.874 156.933 325.867 162.8C329.86 168.667 336.781 171.6 346.63 171.6C354.35 171.6 361.005 169.867 366.595 166.4C372.185 162.933 377.508 158.133 382.566 152C385.494 148.267 389.088 142.667 393.347 135.2C397.872 127.467 400.933 118.8 402.53 109.2L419.7 6.79999H470.01L437.268 203.2C431.945 236 419.966 260 401.333 275.2C382.965 290.4 359.141 298 329.86 298Z" fill="#F3EFEC"/>
<path d="M531.344 6.79999H581.654L568.079 88.8H646.339L659.915 6.79999H710.225L675.886 213.2H625.576L639.551 128H561.291L547.316 213.2H497.005L531.344 6.79999Z" fill="#F3EFEC"/>
<path d="M835.046 218C805.765 218 783.804 210.4 769.163 195.2C754.789 179.733 747.602 157.867 747.602 129.6C747.602 110.667 750.397 93.3333 755.987 77.6C761.843 61.8667 769.962 48.4 780.343 37.2C790.725 26 803.236 17.3333 817.876 11.2C832.517 5.06667 848.755 2 866.589 2C876.971 2 886.554 3.19999 895.338 5.59998C904.389 7.99998 912.241 11.6 918.896 16.4C925.817 20.9333 931.141 26.8 934.867 34C938.86 40.9333 940.857 49.0667 940.857 58.4C940.857 66.4 939.126 74.5333 935.666 82.8C932.206 90.8 925.418 98.1333 915.302 104.8C905.187 111.467 890.68 117.2 871.78 122C853.147 126.533 828.657 129.333 798.311 130.4C798.045 132 797.912 133.467 797.912 134.8C797.912 135.867 797.912 136.8 797.912 137.6C797.912 149.867 800.973 159.733 807.096 167.2C813.484 174.667 824.797 178.4 841.035 178.4C847.424 178.4 853.147 177.867 858.204 176.8C863.262 175.467 868.053 173.333 872.579 170.4C877.37 167.2 882.028 163.2 886.554 158.4C891.345 153.6 896.403 147.6 901.727 140.4L933.67 160.8C928.08 169.067 922.09 176.8 915.702 184C909.579 190.933 902.525 196.933 894.539 202C886.82 207.067 878.036 210.933 868.186 213.6C858.604 216.533 847.557 218 835.046 218ZM861.798 38.8C846.625 38.8 833.981 43.2 823.866 52C814.017 60.5333 807.096 74.6667 803.103 94.4L801.905 100.4C822.402 99.3333 838.506 97.4667 850.219 94.8C862.197 92.1333 871.248 89.0667 877.37 85.6C883.493 82.1333 887.352 78.4 888.949 74.4C890.813 70.1333 891.744 66.1333 891.744 62.4C891.744 55.2 889.349 49.4667 884.557 45.2C880.032 40.9333 872.446 38.8 861.798 38.8Z" fill="#F3EFEC"/>
<path d="M1137.95 289.2C1133.69 289.2 1129.3 288.8 1124.77 288C1120.51 287.2 1115.72 285.867 1110.4 284C1105.34 282.4 1099.48 280 1092.83 276.8C1086.17 273.867 1078.45 270.133 1069.67 265.6L1066.08 267.6L1062.48 287.6H1022.16L1024.55 272.4C1028.81 245.2 1042.52 231.6 1065.68 231.6C1069.4 231.6 1073.26 232 1077.26 232.8C1081.25 233.6 1087.11 235.067 1094.83 237.2L1141.14 250.4L1145.14 248.4L1160.31 206.8L1159.11 206C1152.19 211.867 1143.94 214.8 1134.35 214.8C1123.71 214.8 1115.19 211.467 1108.8 204.8C1102.41 198.133 1099.22 189.2 1099.22 178C1099.22 171.6 1099.75 165.867 1100.81 160.8H1098.82C1094.29 170.4 1089.63 178.667 1084.84 185.6C1080.32 192.533 1075.39 198.133 1070.07 202.4C1065.01 206.667 1059.42 209.867 1053.3 212C1047.44 213.867 1040.92 214.8 1033.73 214.8C1016.43 214.8 1003.12 209.733 993.806 199.6C984.755 189.2 980.23 174.4 980.23 155.2C980.23 150.4 980.496 145.333 981.029 140C981.561 134.4 982.493 126.933 983.824 117.6L1002.59 6.79999H1052.9L1033.73 121.6C1031.87 130.667 1030.94 138.8 1030.94 146C1030.94 165.2 1039.06 174.8 1055.3 174.8C1061.68 174.8 1067.27 173.333 1072.07 170.4C1077.12 167.467 1082.45 162.4 1088.04 155.2C1093.36 148.267 1097.75 141.067 1101.21 133.6C1104.94 126.133 1107.34 119.2 1108.4 112.8L1125.97 6.79999H1176.28L1149.53 168.8L1155.52 170.8L1179.47 146.4L1202.23 168.8L1193.85 178L1180.27 246C1177.08 261.467 1172.15 272.533 1165.5 279.2C1159.11 285.867 1149.93 289.2 1137.95 289.2Z" fill="#F3EFEC"/>
<path d="M3 213.2L37.3387 6.79999H78.8645L72.8752 41.6H75.271C80.0624 29.8667 86.0517 20.4 93.2389 13.2C100.426 5.73333 109.61 2 120.79 2C131.704 2 139.955 5.59999 145.546 12.8C151.136 19.7333 153.265 29.6 151.934 42.4H153.931C158.988 30.4 165.377 20.6667 173.096 13.2C180.816 5.73333 190.931 2 203.442 2C226.867 2 238.579 14.9333 238.579 40.8C238.579 45.0667 238.313 50 237.781 55.6C237.248 61.2 236.583 66.4 235.784 71.2L212.226 213.2H170.701L193.46 75.6C194.791 68.9333 195.456 62.8 195.456 57.2C195.456 45.4667 191.064 39.6 182.28 39.6C178.553 39.6 174.96 40.6667 171.499 42.8C168.039 44.6667 164.578 48.2667 161.118 53.6C158.19 58.4 155.794 63.3333 153.931 68.4C152.067 73.4667 150.736 78.2667 149.938 82.8L128.376 213.2H86.8503L109.61 75.6C110.941 68.9333 111.606 62.8 111.606 57.2C111.606 45.4667 107.214 39.6 98.4296 39.6C94.7029 39.6 91.1094 40.6667 87.6489 42.8C84.1884 44.6667 80.7279 48.2667 77.2674 53.6C74.3393 58.4 71.9436 63.3333 70.0802 68.4C68.2169 73.4667 66.8859 78.2667 66.0874 82.8L44.5259 213.2H3Z" stroke="black" stroke-width="4" mask="url(#path-1-outside-1_368_483)"/>
<path d="M329.86 298C311.493 298 295.788 295.867 282.744 291.6C269.701 287.333 258.521 279.6 249.204 268.4L279.949 236.8C286.072 244.267 293.259 249.6 301.511 252.8C309.763 256.267 318.946 258 329.062 258C337.047 258 344.234 257.067 350.623 255.2C357.278 253.333 363.001 250 367.792 245.2C372.85 240.667 376.976 234.4 380.17 226.4C383.631 218.4 386.293 208.4 388.156 196.4L394.545 157.6H392.548C388.822 165.867 384.696 173.333 380.17 180C375.911 186.667 370.987 192.4 365.397 197.2C360.073 201.733 354.084 205.333 347.429 208C340.774 210.4 333.321 211.6 325.069 211.6C315.486 211.6 307.101 210.133 299.914 207.2C292.993 204 287.27 199.733 282.744 194.4C278.219 189.067 274.759 182.8 272.363 175.6C270.233 168.4 269.168 160.533 269.168 152C269.168 146.667 269.435 141.2 269.967 135.6C270.499 130 271.431 122.933 272.762 114.4L290.73 6.79999H341.04L322.274 118.8C321.741 122.533 321.209 126.4 320.677 130.4C320.144 134.4 319.878 138.533 319.878 142.8C319.878 150.267 321.874 156.933 325.867 162.8C329.86 168.667 336.781 171.6 346.63 171.6C354.35 171.6 361.005 169.867 366.595 166.4C372.185 162.933 377.508 158.133 382.566 152C385.494 148.267 389.088 142.667 393.347 135.2C397.872 127.467 400.933 118.8 402.53 109.2L419.7 6.79999H470.01L437.268 203.2C431.945 236 419.966 260 401.333 275.2C382.965 290.4 359.141 298 329.86 298Z" stroke="black" stroke-width="4" mask="url(#path-1-outside-1_368_483)"/>
<path d="M531.344 6.79999H581.654L568.079 88.8H646.339L659.915 6.79999H710.225L675.886 213.2H625.576L639.551 128H561.291L547.316 213.2H497.005L531.344 6.79999Z" stroke="black" stroke-width="4" mask="url(#path-1-outside-1_368_483)"/>
<path d="M835.046 218C805.765 218 783.804 210.4 769.163 195.2C754.789 179.733 747.602 157.867 747.602 129.6C747.602 110.667 750.397 93.3333 755.987 77.6C761.843 61.8667 769.962 48.4 780.343 37.2C790.725 26 803.236 17.3333 817.876 11.2C832.517 5.06667 848.755 2 866.589 2C876.971 2 886.554 3.19999 895.338 5.59998C904.389 7.99998 912.241 11.6 918.896 16.4C925.817 20.9333 931.141 26.8 934.867 34C938.86 40.9333 940.857 49.0667 940.857 58.4C940.857 66.4 939.126 74.5333 935.666 82.8C932.206 90.8 925.418 98.1333 915.302 104.8C905.187 111.467 890.68 117.2 871.78 122C853.147 126.533 828.657 129.333 798.311 130.4C798.045 132 797.912 133.467 797.912 134.8C797.912 135.867 797.912 136.8 797.912 137.6C797.912 149.867 800.973 159.733 807.096 167.2C813.484 174.667 824.797 178.4 841.035 178.4C847.424 178.4 853.147 177.867 858.204 176.8C863.262 175.467 868.053 173.333 872.579 170.4C877.37 167.2 882.028 163.2 886.554 158.4C891.345 153.6 896.403 147.6 901.727 140.4L933.67 160.8C928.08 169.067 922.09 176.8 915.702 184C909.579 190.933 902.525 196.933 894.539 202C886.82 207.067 878.036 210.933 868.186 213.6C858.604 216.533 847.557 218 835.046 218ZM861.798 38.8C846.625 38.8 833.981 43.2 823.866 52C814.017 60.5333 807.096 74.6667 803.103 94.4L801.905 100.4C822.402 99.3333 838.506 97.4667 850.219 94.8C862.197 92.1333 871.248 89.0667 877.37 85.6C883.493 82.1333 887.352 78.4 888.949 74.4C890.813 70.1333 891.744 66.1333 891.744 62.4C891.744 55.2 889.349 49.4667 884.557 45.2C880.032 40.9333 872.446 38.8 861.798 38.8Z" stroke="black" stroke-width="4" mask="url(#path-1-outside-1_368_483)"/>
<path d="M1137.95 289.2C1133.69 289.2 1129.3 288.8 1124.77 288C1120.51 287.2 1115.72 285.867 1110.4 284C1105.34 282.4 1099.48 280 1092.83 276.8C1086.17 273.867 1078.45 270.133 1069.67 265.6L1066.08 267.6L1062.48 287.6H1022.16L1024.55 272.4C1028.81 245.2 1042.52 231.6 1065.68 231.6C1069.4 231.6 1073.26 232 1077.26 232.8C1081.25 233.6 1087.11 235.067 1094.83 237.2L1141.14 250.4L1145.14 248.4L1160.31 206.8L1159.11 206C1152.19 211.867 1143.94 214.8 1134.35 214.8C1123.71 214.8 1115.19 211.467 1108.8 204.8C1102.41 198.133 1099.22 189.2 1099.22 178C1099.22 171.6 1099.75 165.867 1100.81 160.8H1098.82C1094.29 170.4 1089.63 178.667 1084.84 185.6C1080.32 192.533 1075.39 198.133 1070.07 202.4C1065.01 206.667 1059.42 209.867 1053.3 212C1047.44 213.867 1040.92 214.8 1033.73 214.8C1016.43 214.8 1003.12 209.733 993.806 199.6C984.755 189.2 980.23 174.4 980.23 155.2C980.23 150.4 980.496 145.333 981.029 140C981.561 134.4 982.493 126.933 983.824 117.6L1002.59 6.79999H1052.9L1033.73 121.6C1031.87 130.667 1030.94 138.8 1030.94 146C1030.94 165.2 1039.06 174.8 1055.3 174.8C1061.68 174.8 1067.27 173.333 1072.07 170.4C1077.12 167.467 1082.45 162.4 1088.04 155.2C1093.36 148.267 1097.75 141.067 1101.21 133.6C1104.94 126.133 1107.34 119.2 1108.4 112.8L1125.97 6.79999H1176.28L1149.53 168.8L1155.52 170.8L1179.47 146.4L1202.23 168.8L1193.85 178L1180.27 246C1177.08 261.467 1172.15 272.533 1165.5 279.2C1159.11 285.867 1149.93 289.2 1137.95 289.2Z" stroke="black" stroke-width="4" mask="url(#path-1-outside-1_368_483)"/>
</svg>
